<?xml version="1.0" encoding="utf-8"?>
<!-- Generator: Adobe Illustrator 19.2.0, SVG Export Plug-In . SVG Version: 6.00 Build 0)  -->
<svg version="1.1" xmlns="http://www.w3.org/2000/svg" xmlns:xlink="http://www.w3.org/1999/xlink" x="0px" y="0px"
	 viewBox="0 0 269.8 53.2" style="enable-background:new 0 0 269.8 53.2;" xml:space="preserve">
<style type="text/css">
	.st0{display:none;}
</style>
<g id="Layer_1" class="st0">
	
		<image style="display:inline;overflow:visible;" width="383" height="74" xlink:href="../desktop-logo.png"  transform="matrix(0.7041 0 0 0.7041 -4.036458e-02 0.4776)">
	</image>
</g>
<g id="Layer_2">
	<g>
		<path d="M7.7,2.4H1.7v4.4h5.9v1.6H1.7v5.8h6.1v1.6H0V0.8h7.7V2.4z"/>
		<path d="M16.9,0.8v13.3H21v1.6h-5.8V0.8H16.9z"/>
		<path d="M29.3,0.8v13.3h4.1v1.6h-5.8V0.8H29.3z"/>
		<path d="M47.8,2.4h-6.1v4.4h5.9v1.6h-5.9v5.8h6.1v1.6h-7.7V0.8h7.7V2.4z"/>
		<path d="M55.3,15.7V0.2l11.6,12.2V0.8h1.7v15.5L57,4.2v11.5H55.3z"/>
	</g>
	<path d="M221.4,25c-0.6,1.1-4.1,5.4-5.1,6.5c-0.7,0.5-1.4,1-2.2,1.4c-0.8,0.4-1.6,0.6-2.5,0.6c-0.2,0-0.4-0.2-0.4-0.6
		c0-0.1,0-0.2,0-0.3c0-0.1,0.1-0.2,0.1-0.4c0.1-0.3,0.2-0.6,0.3-0.8s0.2-0.4,0.2-0.6c0-0.2-0.1-0.5-0.3-0.7
		c-0.2,0.1-0.4,0.1-0.5,0.2c-0.1,0-0.3,0.1-0.4,0.2c-0.1,0.1-0.3,0.2-0.6,0.3c-0.2,0.1-0.5,0.3-0.9,0.4c-0.2,0-0.3,0-0.3-0.1
		s0.1-0.1,0.2-0.2s0.3-0.2,0.5-0.3c0.2-0.1,0.3-0.2,0.5-0.3c0.2-0.1,0.3-0.1,0.3-0.2l1-0.5c0.5-0.3,0.9-0.6,1.2-0.7
		c0.3-0.2,0.8-0.3,1.4-0.4c0.7,0.1,1,0.3,1,0.6c0,0.1-0.1,0.3-0.4,0.5c-0.3,0.2-0.5,0.4-0.9,0.5l-0.4,0.6l-0.4,1.5l0,0.2l0.1,0
		l0.9-0.1c0.5-0.3,1-0.7,1.4-1c0.4-0.4,0.8-0.8,1.1-1.3c0.3-0.5,3.2-3.7,3.5-4.4l0.9-1.8"/>
	<path d="M222.2,32.6c0.4-0.1,0.7-0.1,0.9-0.2s0.5-0.1,0.7-0.2c0.2-0.1,0.5-0.2,0.8-0.4c0.3-0.2,0.7-0.4,1.2-0.8
		c0.2-0.2,0.4-0.3,0.6-0.4c0.1-0.1,0.3-0.1,0.3-0.1l0,0c0,0.1-0.1,0.2-0.3,0.4c-0.2,0.2-0.4,0.4-0.7,0.5l-0.5,0.4
		c-0.8,0.6-1.5,1-2.2,1.3s-1.6,0.5-2.6,0.5c-0.4-0.1-0.7-0.3-0.7-0.4c-0.1-0.2-0.1-0.5-0.1-0.9c0.3-1,0.8-1.8,1.4-2.4
		c0.6-0.7,1.4-1.2,2.2-1.7c0.3-0.1,0.6-0.3,0.9-0.5c0.3-0.2,0.6-0.1,0.8,0.2c0,0.7-0.1,1.2-0.4,1.7c-0.3,0.4-0.8,0.9-1.5,1.4
		l-0.8,0.6c-0.1,0.1-0.2,0.2-0.4,0.3c-0.1,0.1-0.2,0.3-0.1,0.4L222.2,32.6z M221.7,31.7L221.7,31.7c0.5-0.3,0.8-0.6,1.1-1
		s0.6-0.7,1-1.1c0.2-0.4,0.1-0.6-0.3-0.6c-0.3,0-0.6,0.2-1.1,0.5c-0.4,0.4-0.7,0.8-0.9,1.3L221.7,31.7L221.7,31.7z"/>
	<path d="M232.2,27.8c0.2,0,0.4,0.1,0.4,0.3l-0.1,0.2c-0.4,0.1-0.7,0.3-0.8,0.3s-0.4,0.3-0.7,0.6l-0.1,0.3c0.2,0.3,0.3,0.6,0.5,0.8
		c0.1,0.2,0.2,0.5,0.2,0.8c0,0.1,0,0.3,0,0.4l0.1,0.1c0.3-0.1,0.5-0.2,0.6-0.3c0.1,0,0.2-0.1,0.2-0.1c0.1,0,0.1-0.1,0.2-0.1
		c0.1-0.1,0.2-0.2,0.5-0.4c0.3-0.1,0.4-0.1,0.4-0.1c0.1,0,0.2,0,0.2,0.1c0,0-0.1,0.1-0.2,0.3c-0.4,0.2-0.6,0.3-0.7,0.4
		c-0.1,0.1-0.2,0.1-0.3,0.2c-0.1,0-0.2,0.1-0.3,0.2c-0.1,0.1-0.3,0.3-0.7,0.5l-0.4,0.7l-0.2,0.4l-0.4,0.4l-0.5,0.6
		c-0.3,0.2-0.6,0.4-0.7,0.6c-0.2,0.1-0.3,0.2-0.5,0.3c-0.2,0.1-0.4,0.1-0.6,0.2c-0.2,0-0.6,0.1-1,0.1c-0.2-0.1-0.3-0.1-0.4-0.2
		c-0.1,0-0.2-0.2-0.2-0.4c0-0.2,0.1-0.5,0.4-0.7c0.3-0.2,0.5-0.4,0.6-0.5l2.1-1.2c0.1-0.3,0.1-0.4,0.1-0.5c0-0.1,0-0.2,0-0.3
		c0-0.1-0.1-0.3-0.1-0.5c-0.1-0.2-0.2-0.4-0.2-0.4c-0.1-0.1-0.1-0.2-0.1-0.2c0-0.1,0-0.1,0-0.2s0-0.2-0.1-0.3
		c-0.5,0.1-1,0.3-1.4,0.5c-0.4,0.2-0.9,0.4-1.5,0.7c-0.1,0-0.1,0-0.1,0c0,0,0,0-0.1,0c-0.1,0-0.1,0-0.1-0.1c0-0.1,0.2-0.3,0.5-0.5
		c0.4-0.3,0.6-0.5,0.9-0.6c0.4-0.2,0.6-0.3,0.7-0.4c0.1-0.1,0.2-0.1,0.3-0.2c0.1,0,0.2-0.1,0.3-0.1c0.1,0,0.4-0.1,0.7-0.2
		c0.3-0.4,0.7-0.7,1.1-0.9c0.4-0.1,0.9-0.3,1.4-0.5H232.2z M229.5,33.3c-0.1,0-0.2,0-0.4,0s-0.2,0.1-0.3,0.1
		c-0.2,0.1-0.3,0.1-0.3,0.2c0,0-0.1,0.1-0.2,0.3c-0.1,0.1-0.2,0.1-0.3,0.2c-0.1,0.1-0.1,0.2-0.1,0.3c0,0.3,0.1,0.4,0.4,0.4
		c0.2,0,0.4-0.1,0.7-0.2c0.3-0.1,0.4-0.3,0.5-0.4c0.1-0.2,0.2-0.4,0.2-0.4c0,0,0.1-0.1,0.1-0.2C229.7,33.4,229.6,33.3,229.5,33.3z"
		/>
	<path d="M238.9,27.3c0.2,0,0.3,0.1,0.3,0.3c-0.4,0.6-0.7,1.2-1.1,1.7c-0.4,0.5-0.6,1.1-0.8,1.8l-0.3,0.5v0.3l0.4,0.1h0.3l0.3-0.2
		l0.6-0.4l0.9-0.5l0.5-0.4c0.1,0,0.2,0,0.3,0c0.1,0,0.2,0,0.2,0.1c0,0.1-0.1,0.3-0.4,0.5c-0.3,0.2-0.5,0.3-0.7,0.5l-0.5,0.3
		l-1.1,0.8c-0.4,0.3-0.8,0.5-1.2,0.7c-0.4,0.2-0.8,0.3-1.3,0.3H235l-0.1-0.1c0.1-0.7,0.3-1.2,0.6-1.7c0.2-0.5,0.5-1,0.8-1.6V30
		l-0.6-0.1l-0.5,0.2l-0.8,0.4l-0.7,0.4l-0.8,0.5h-0.3l0.1-0.3l1.3-0.9l1.5-0.9l0.6-0.4c0.4-0.3,0.8-0.5,1.3-0.8
		c0.4-0.3,0.9-0.5,1.4-0.7H238.9z M241.4,24.2c-0.2,0.1-0.5,0.2-0.7,0.2c-0.4,0-0.8-0.2-1.2-0.6c-0.4-0.4-0.6-0.8-0.6-1.2v0
		c0-0.2,0-0.3,0.1-0.2c0,0,0.2-0.1,0.6-0.3l0.2,0l0.5,0l1.2,1.8L241.4,24.2z"/>
	<path d="M248.3,32.4l1.1-0.6l1-0.7c0.1-0.1,0.3-0.2,0.4-0.3c0.2-0.1,0.3-0.1,0.4-0.1c0.1,0,0.1,0,0.1,0.1c0,0.1-0.1,0.2-0.2,0.3
		l-0.8,0.6l-0.5,0.3c-0.8,0.7-1.4,1.3-2,2c-0.5,0.6-1,1.4-1.5,2.4c-0.4,0.8-0.8,1.5-1.3,2.3c-0.4,0.8-0.9,1.5-1.4,2.2l-0.3,0.8
		c-0.7,1.4-1.5,2.7-2.4,3.9c-0.9,1.3-1.9,2.5-2.9,3.7c-0.3,0.4-0.5,0.7-0.6,0.8c-0.1,0.1-0.2,0.3-0.3,0.4s-0.2,0.2-0.4,0.3
		c-0.1,0.1-0.4,0.3-0.8,0.6c-0.3,0.2-0.5,0.4-0.6,0.6c-0.1,0.1-0.3,0.3-0.4,0.3c-0.1,0.1-0.2,0.1-0.2,0.1c-0.1,0-0.1,0-0.3,0h-0.5
		c-0.3-0.2-0.6-0.4-0.7-0.6s-0.2-0.4-0.3-0.7c0-0.3-0.1-0.6-0.1-1c0-0.4,0-0.8,0-1.4l0.1-0.5c0.1-0.7,0.2-1.3,0.4-1.8
		c0.2-0.5,0.4-1,0.7-1.4c0.3-0.4,0.6-0.8,1-1.2c0.4-0.4,0.8-0.8,1.2-1.3c1.4-1.3,2.9-2.6,4.3-3.9c1.4-1.3,2.9-2.6,4.3-4l0.2-0.3
		l0.4-0.9l0.6-1.1l0.3-1.1v-0.2l-0.1-0.1c-0.5,0.5-0.9,0.9-1.3,1.2c-0.4,0.3-0.9,0.6-1.5,0.8c-0.1,0.1-0.3,0.1-0.5,0.2
		c-0.2,0.1-0.4,0.1-0.6,0.1c-0.2,0-0.4,0-0.5-0.1c-0.1-0.1-0.1-0.3-0.1-0.5c0-0.3,0-0.6,0.1-0.9c0.1-0.3,0.2-0.6,0.2-0.8
		c0.1-0.1,0.1-0.3,0.2-0.4c0.1-0.1,0.1-0.2,0.1-0.3c0-0.1,0-0.1-0.1-0.1c-0.1,0-0.2,0-0.3,0.1c-0.1,0.1-0.3,0.1-0.6,0.2l-0.6,0.2
		l-1.1,0.6c-0.2,0-0.3,0-0.3-0.1c0-0.1,0.1-0.1,0.2-0.2c0.1-0.1,0.2-0.2,0.3-0.3c0.1-0.1,0.2-0.2,0.3-0.3s0.2-0.1,0.2-0.1l1.2-0.8
		c0.2-0.2,0.4-0.3,0.6-0.4c0.1-0.1,0.3-0.2,0.4-0.3c0.1-0.1,0.3-0.2,0.5-0.2c0.2-0.1,0.4-0.1,0.8-0.2c0.2,0.1,0.4,0.1,0.6,0.2
		c0.2,0,0.2,0.1,0.2,0.3c0,0.1-0.1,0.3-0.2,0.6l-0.8,0.9l-0.4,1l-0.1,0.6l0,0.3l0.2,0.1c0.3-0.1,0.8-0.3,1.3-0.7
		c0.5-0.4,0.9-0.9,1.2-1.4c-0.1-0.2-0.2-0.4-0.5-0.6s-0.3-0.3-0.3-0.5c0-0.4,0.1-0.7,0.3-0.8s0.5-0.2,0.8-0.2
		c0.5,0.1,0.8,0.2,0.9,0.3c0.1,0.2,0.2,0.4,0.2,0.7c0.2,0.2,0.3,0.3,0.4,0.4c0.1,0.1,0.2,0.2,0.3,0.3c0.1,0.1,0.1,0.2,0.2,0.4
		c0,0.1,0.1,0.4,0.1,0.6l-0.5,1.5H248.3z M244.1,36.5l-1.1,0.9l-0.6,0.7l-0.6,0.4l-0.7,0.7l-1.9,1.6l-1,0.8l-0.9,1.2l-0.2,0.4
		c-0.4,0.4-0.7,0.6-0.9,0.8s-0.3,0.3-0.4,0.4c-0.1,0.1-0.2,0.3-0.3,0.5c-0.1,0.2-0.4,0.6-0.8,1.2l-0.1,0.5c-0.3,0.4-0.5,0.9-0.6,1.3
		c-0.1,0.5-0.1,1-0.2,1.5l0.4,0.8c0.1,0.3,0.1,0.6,0.2,0.7c0,0.1,0.2,0.2,0.6,0.2c0.6-0.3,1.4-1,2.3-2.1c0.9-1.1,1.8-2.7,2.9-4.6
		l0.7-0.8l2.8-5.4l0.6-1.5L244.1,36.5z"/>
	<path d="M258.9,30c0-0.2-0.1-0.3-0.3-0.3c-0.1,0-0.2,0.1-0.4,0.2c-0.1,0.1-0.2,0.2-0.4,0.2l-2.3,1.8c-0.1,0.1-0.3,0.3-0.6,0.5
		c-0.2,0.2-0.5,0.4-0.8,0.6c-0.3,0.2-0.5,0.4-0.8,0.5c-0.3,0.1-0.5,0.2-0.7,0.2l-0.1-0.1l0-0.4l1.4-2.7c0.1-0.3,0.2-0.5,0.2-0.7
		c0-0.2-0.1-0.4-0.4-0.4c-0.1,0-0.3,0-0.6,0.1s-0.5,0.2-0.7,0.4l-1.3,0.8c-0.4,0.2-0.7,0.4-0.9,0.4c-0.1,0-0.1,0-0.1-0.1l0.1-0.2
		l1.3-0.9c0.6-0.4,1.2-0.8,1.8-1.1c0.6-0.3,1.3-0.6,2-0.8c0.4,0,0.6,0.2,0.6,0.6c0,0.3-0.1,0.7-0.2,1c-0.1,0.4-0.3,0.6-0.3,0.8
		l-0.2,0.5l0.1,0.1l1.5-1.2c0.5-0.4,1-0.7,1.6-1.1c0.6-0.3,1.2-0.5,1.8-0.5c0.1,0.2,0.2,0.4,0.2,0.7c0,0.3-0.1,0.6-0.2,0.9
		c-0.1,0.3-0.3,0.6-0.4,0.8c-0.1,0.2-0.3,0.4-0.5,0.6c-0.2,0.2-0.2,0.5-0.2,0.7c0,0.1,0,0.3,0.1,0.4c0.1,0,0.3,0,0.3,0
		c0.1,0,0.2,0,0.2,0c0.1-0.1,0.3-0.2,0.6-0.3c0.2-0.1,0.7-0.4,1.4-0.8c0.5-0.3,0.8-0.4,0.9-0.4l0.1,0c0,0.1-0.1,0.2-0.3,0.4
		s-0.4,0.4-0.6,0.6c-0.7,0.5-1.4,0.9-2.1,1.3c-0.6,0.4-1.3,0.6-2.1,0.6c-0.3-0.2-0.4-0.4-0.4-0.6c0-0.1,0-0.2,0.1-0.4
		c0-0.1,0.1-0.3,0.2-0.5L258.9,30z"/>
	<path d="M268.4,27.8c0.2,0,0.4,0.1,0.4,0.3l-0.1,0.2c-0.4,0.1-0.7,0.3-0.8,0.3s-0.4,0.3-0.7,0.6l-0.1,0.3c0.2,0.3,0.3,0.6,0.5,0.8
		c0.1,0.2,0.2,0.5,0.2,0.8c0,0.1,0,0.3,0,0.4l0.1,0.1c0.3-0.1,0.5-0.2,0.6-0.3c0.1,0,0.2-0.1,0.2-0.1c0.1,0,0.1-0.1,0.2-0.1
		c0.1-0.1,0.2-0.2,0.5-0.4c0.3-0.1,0.4-0.1,0.4-0.1c0.1,0,0.2,0,0.2,0.1c0,0-0.1,0.1-0.2,0.3c-0.4,0.2-0.6,0.3-0.7,0.4
		c-0.1,0.1-0.2,0.1-0.3,0.2c-0.1,0-0.2,0.1-0.3,0.2c-0.1,0.1-0.3,0.3-0.7,0.5l-0.4,0.7l-0.2,0.4l-0.4,0.4l-0.5,0.6
		c-0.3,0.2-0.6,0.4-0.7,0.6c-0.2,0.1-0.3,0.2-0.5,0.3c-0.2,0.1-0.4,0.1-0.6,0.2c-0.2,0-0.6,0.1-1,0.1c-0.2-0.1-0.3-0.1-0.4-0.2
		c-0.1,0-0.2-0.2-0.2-0.4c0-0.2,0.1-0.5,0.4-0.7c0.3-0.2,0.5-0.4,0.6-0.5l2.1-1.2c0.1-0.3,0.1-0.4,0.1-0.5c0-0.1,0-0.2,0-0.3
		c0-0.1-0.1-0.3-0.1-0.5c-0.1-0.2-0.2-0.4-0.2-0.4c-0.1-0.1-0.1-0.2-0.1-0.2c0-0.1,0-0.1,0-0.2s0-0.2-0.1-0.3
		c-0.5,0.1-1,0.3-1.4,0.5c-0.4,0.2-0.9,0.4-1.5,0.7c-0.1,0-0.1,0-0.1,0c0,0,0,0-0.1,0c-0.1,0-0.1,0-0.1-0.1c0-0.1,0.2-0.3,0.5-0.5
		c0.4-0.3,0.6-0.5,0.9-0.6c0.4-0.2,0.6-0.3,0.7-0.4c0.1-0.1,0.2-0.1,0.3-0.2c0.1,0,0.2-0.1,0.3-0.1c0.1,0,0.4-0.1,0.7-0.2
		c0.3-0.4,0.7-0.7,1.1-0.9c0.4-0.1,0.9-0.3,1.4-0.5H268.4z M265.6,33.3c-0.1,0-0.2,0-0.4,0s-0.2,0.1-0.3,0.1
		c-0.2,0.1-0.3,0.1-0.3,0.2c0,0-0.1,0.1-0.2,0.3c-0.1,0.1-0.2,0.1-0.3,0.2c-0.1,0.1-0.1,0.2-0.1,0.3c0,0.3,0.1,0.4,0.4,0.4
		c0.2,0,0.4-0.1,0.7-0.2c0.3-0.1,0.4-0.3,0.5-0.4c0.1-0.2,0.2-0.4,0.2-0.4c0,0,0.1-0.1,0.1-0.2C265.9,33.4,265.8,33.3,265.6,33.3z"
		/>
	<g>
		<path d="M89.5,6.9h7.6v-6h1.7v14.9h-1.7V8.5h-7.6v7.3h-1.7V0.8h1.7V6.9z"/>
		<path d="M106.3,8.3c0-4.4,3.5-7.7,7.7-7.7s7.7,3.3,7.7,7.7c0,4.4-3.4,7.7-7.7,7.7S106.3,12.7,106.3,8.3z M108,8.3
			c0,3.4,2.7,6.1,6,6.1s6-2.7,6-6.1s-2.7-6.1-6-6.1S108,4.9,108,8.3z"/>
		<path d="M136,2.4h-5.1v4.4h5v1.6h-5v7.4h-1.7V0.8h6.8V2.4z"/>
		<path d="M150.2,2.4h-5.1v4.4h5v1.6h-5v7.4h-1.7V0.8h6.8V2.4z"/>
		<path d="M157,15.7L159.5,0l5.7,12.6L171,0l2.3,15.7h-1.7l-1.4-10.4l-5.1,11l-5-11l-1.5,10.4H157z"/>
		<path d="M189.5,11.5h-6.3l-1.8,4.2h-1.8l6.8-15.6l6.7,15.6h-1.8L189.5,11.5z M188.8,10l-2.5-6l-2.5,6H188.8z"/>
		<path d="M199.6,15.7V0.2l11.6,12.2V0.8h1.7v15.5L201.2,4.2v11.5H199.6z"/>
	</g>
</g>
<g id="Layer_3">
	<path d="M220.8,23.8c3.2-6.2,3-11.9,3-11.9s-0.1-5.8-5.9-6.5s-10.6,6.2-10.6,6.2c-2.2,0.4,7.6-11.6,15.6-6.3
		c6.8,4.6,2.2,12.5,2.2,12.5l-3.9,7.6L220.8,23.8z"/>
</g>
</svg>
